<?xml version="1.0" standalone="no"?><!DOCTYPE svg PUBLIC "-//W3C//DTD SVG 1.1//EN" "http://www.w3.org/Graphics/SVG/1.1/DTD/svg11.dtd"><svg t="1699965861422" class="icon" viewBox="0 0 1024 1024" version="1.1" xmlns="http://www.w3.org/2000/svg" p-id="4934" xmlns:xlink="http://www.w3.org/1999/xlink" width="16" height="16"><path d="M174.908 849.389V174.908l674.185-0.337 0.297 674.561-674.482 0.224v0.033zM849.389 100H174.611c-41.177 0.04-74.548 33.399-74.611 74.571v674.818C100 890.515 133.485 924 174.611 924H849.39c41.184-0.063 74.548-33.427 74.611-74.611V174.571c-0.079-41.16-33.45-74.491-74.611-74.532V100zM730.906 385.272L594.199 521.943 474.605 402.314c-14.574-14.59-38.195-14.658-52.848-0.154L238.193 583.815c-13.996 14.676-13.791 37.823 0.468 52.242 14.259 14.42 37.4 14.888 52.23 1.058L447.979 481.64l119.777 119.783c14.865 14.031 38.097 14.031 52.962 0l163.15-163.189c14.625-14.625 14.625-38.337 0-52.962s-38.337-14.625-52.962 0" fill="#1296db" p-id="4935"></path></svg>